<svg xmlns="http://www.w3.org/2000/svg" width="34.593" height="55.519" viewBox="185.703 320 34.593 55.519"><path d="M201.661 365.217a.64.64 0 0 1-.475-.203.67.67 0 0 1-.192-.486.67.67 0 0 1 .192-.486.64.64 0 0 1 .475-.203c.192 0 .352.068.48.203a.66.66 0 0 1 .198.486.66.66 0 0 1-.197.486.634.634 0 0 1-.481.203Zm-14.166-18.815c.341 2.504 1.108 4.788 2.345 6.84a5.862 5.862 0 0 0 1.204 1.407c3.48 2.995 8.128 6.114 11.712 4.69.105-.042.196-.12.29-.187.026-.02.036-.063.099-.18-1.572-2.29-3.03-4.729-4.795-6.92a14.98 14.98 0 0 1-.63-.847h-.003c-3.472-4.831-3.969-10.077-2.402-15.638.66-2.339 1.166-4.668.492-7.097-.418-1.508-1.85-3.004-3.252-3.936.986 6.354-6.133 14.001-5.06 21.868Zm9.674 1.746 18.332-24.05a2.245 2.245 0 0 0-3.571-2.722l-16.181 21.229c.14 1.895.6 3.745 1.42 5.543Zm11.505-24.542a2.245 2.245 0 0 0-3.571-2.722l-7.748 10.165c-.026 1.52-.384 3.017-.806 4.517-.483 1.71-.768 3.392-.833 5.04l12.958-17Zm6.259 3.314L197.8 349.397c.34.608.722 1.21 1.15 1.807h.003c.197.283.404.566.63.847.317.394.622.797.921 1.204l18-23.613a2.245 2.245 0 1 0-3.571-2.722ZM200.25 365.5a.74.74 0 0 0-.208.529c0 .206.07.38.208.523a.68.68 0 0 0 .513.22.68.68 0 0 0 .513-.22.732.732 0 0 0 .208-.523c0-.21-.07-.387-.208-.529a.68.68 0 0 0-.513-.219.69.69 0 0 0-.513.22Zm13.747 7.421c-.207 0-.385.107-.534.322-.146.22-.22.48-.22.784 0 .313.074.577.22.791.15.215.327.322.534.322.21 0 .388-.11.534-.33.15-.214.224-.475.224-.783 0-.309-.075-.57-.224-.784-.146-.215-.324-.322-.534-.322Zm5.414-38.672a2.245 2.245 0 0 0-3.146.425l-14.988 19.663c.905 1.304 1.76 2.643 2.636 3.948l15.923-20.89a2.245 2.245 0 0 0-.425-3.146Zm-1.686 29.35c0-.25.183-.374.55-.374.188 0 .374.018.555.053l.134-.742a2.53 2.53 0 0 0-.647-.064c-.53 0-.938.12-1.223.358a.94.94 0 0 0-.363.747c0 .232.084.392.251.481a3.559 3.559 0 0 0-.657-.043v.753h2.82v-.753h-.64c-.52 0-.78-.139-.78-.416Zm-15.146 3.172c.199 0 .37-.073.512-.219a.733.733 0 0 0 .209-.523c0-.21-.07-.387-.209-.529a.68.68 0 0 0-.512-.219.702.702 0 0 0-.524.22.739.739 0 0 0-.208.528c0 .206.07.38.208.523a.702.702 0 0 0 .524.22Zm14.52 5.97h1.448v-7.38h-1.447v7.38Zm-3.011-1.137h-8.631a21.31 21.31 0 0 0 .054-1.41c0-1.04-.118-2.049-.353-3.028l-1.41.193c.214.947.32 1.924.32 2.932 0 .466-.026.904-.08 1.313h-.283c-.512 0-.854-.065-1.025-.197-.178-.136-.267-.417-.267-.844v-2.745h-1.389v2.473c0 .932-.291 1.399-.875 1.399-.31 0-.517-.112-.62-.337-.089-.188-.133-.546-.133-1.073v-2.024h-1.442v1.992c0 .523-.077.883-.23 1.079-.142.185-.395.277-.758.277H189.324V367.6h-1.442v5.266c0 .562-.105.965-.315 1.207-.185.213-.475.32-.87.32-.289 0-.584-.043-.887-.128l-.107 1.148c.292.071.598.107.919.107 1.801 0 2.702-.911 2.702-2.734v-.043H196.956c.748 0 1.234-.255 1.458-.764.189.566.673.85 1.453.85.84 0 1.39-.28 1.65-.84.157.293.39.494.7.604.288.1.73.15 1.324.15h11.99v-5.143h-1.442v4.005Z" fill="#ededed" fill-rule="evenodd" data-name="Path 19"/></svg>