<svg xmlns="http://www.w3.org/2000/svg" width="18.079" height="16" viewBox="2.378 1.741 18.079 16"><path d="m10.525 9.014 3.117-2.759a.67.67 0 0 0 0-1.028.9.9 0 0 0-1.162 0l-4.52 4a.67.67 0 0 0 0 1.028l4.52 4a.9.9 0 0 0 1.162 0 .67.67 0 0 0 0-1.028l-3.117-2.759h9.114c.452 0 .818-.323.818-.727 0-.402-.37-.727-.818-.727h-9.114Zm1.714-5.819c.454 0 .822-.325.822-.727 0-.402-.368-.727-.822-.727H4.436c-1.137 0-2.058.814-2.058 1.82v12.36c0 1.005.921 1.82 2.058 1.82h7.803c.454 0 .822-.326.822-.727 0-.402-.368-.728-.822-.728H4.436c-.23 0-.414-.163-.414-.366V3.561c0-.202.184-.366.414-.366h7.803Z" fill="#f2d16a" fill-rule="evenodd" data-name="path"/></svg>