<svg xmlns="http://www.w3.org/2000/svg" width="56.171" height="55.908" viewBox="32.225 25.15 56.171 55.908"><path d="M52.319 59.705c-.597.331-1.194.662-1.724.861v3.118c3.913.33 6.964 3.514 6.964 7.56v6.896c0 .399-.333.796-.73.796h-2.52c-.398 0-.73-.397-.73-.796 0-.398.332-.795.73-.795h1.724v-6.101a6.014 6.014 0 0 0-6.035-6.035c-3.316 0-5.968 2.652-5.968 6.035v6.1h1.79c.465 0 .796.398.796.796a.806.806 0 0 1-.796.796h-2.586a.806.806 0 0 1-.795-.796v-6.896c0-3.847 2.917-7.03 6.63-7.494v-2.388c-11.207 5.172-16.844 3.05-16.844 19.696h56.17c0-15.982-5.637-14.39-16.712-19.63v5.504c0 .067 0 .134-.066.2 1.194.398 2.057 1.459 2.057 2.785 0 1.591-1.327 2.918-2.986 2.918-1.59 0-2.917-1.327-2.917-2.918 0-1.459.995-2.652 2.388-2.918v-6.367c-.598-.265-1.194-.596-1.792-.927-2.652 9.416-13.13 10.477-16.048 0Zm18.37 11.539a1.33 1.33 0 0 1-1.327-1.327c0-.796.598-1.392 1.326-1.392.797 0 1.393.596 1.393 1.392 0 .73-.596 1.327-1.393 1.327Zm-.265-32.63s-.863-2.385-.863-3.911c0 0-9.019 5.372-12.268 5.372 0 0 6.035-2.919 6.963-5.173-2.917 1.99-9.085 5.173-11.075 4.974 0 0 2.72-1.526 3.184-2.852-6.566 1.59-6.3 6.831-6.633 11.805 0 0-1.193-5.638-1.525-6.964-2.785-9.284 3.78-16.578 12.8-16.71 10.875-.2 15.915 7.559 12.202 17.308-.597 1.657-2.322 7.493-2.322 7.493.2-3.78 1.062-7.76-.463-11.341Z" fill="#fff" fill-rule="evenodd" data-name="Path 10720"/></svg>