<svg xmlns="http://www.w3.org/2000/svg" width="10.647" height="9.416" viewBox="0 0 10.647 9.416">
  <g id="Group_8835" data-name="Group 8835" transform="translate(0)">
    <path id="Path_10822" data-name="Path 10822" d="M164.081,553.7c.64-.185.926-1.143.639-2.139s-1.04-1.655-1.68-1.471-.926,1.142-.639,2.139S163.441,553.885,164.081,553.7Z" transform="translate(-159.966 -550.06)" fill="#3ababd"/>
    <path id="Path_10823" data-name="Path 10823" d="M147.995,570.23c.557-.3.628-1.25.157-2.118s-1.3-1.326-1.86-1.024-.627,1.25-.157,2.118S147.437,570.531,147.995,570.23Z" transform="translate(-145.823 -564.606)" fill="#3ababd"/>
    <path id="Path_10824" data-name="Path 10824" d="M162.061,577.275c-2.25,0-4.742,4.771-2.877,5.434,1.52.54,1.539-.631,2.8-.574l.081.006.081-.006c1.257-.057,1.277,1.114,2.8.574C166.8,582.046,164.311,577.275,162.061,577.275Z" transform="translate(-156.738 -573.436)" fill="#3ababd"/>
    <path id="Path_10825" data-name="Path 10825" d="M187.555,553.7c.64.184,1.393-.474,1.68-1.47s0-1.955-.639-2.139-1.392.474-1.68,1.471S186.915,553.516,187.555,553.7Z" transform="translate(-181.023 -550.06)" fill="#3ababd"/>
    <path id="Path_10826" data-name="Path 10826" d="M204.75,567.088c-.557-.3-1.39.156-1.861,1.024s-.4,1.815.157,2.118,1.391-.157,1.861-1.024S205.306,567.39,204.75,567.088Z" transform="translate(-194.571 -564.606)" fill="#3ababd"/>
  </g>
</svg>
