<svg xmlns="http://www.w3.org/2000/svg" width="18.734" height="16.982" viewBox="0 0 18.734 16.982">
  <g id="Group_8830" data-name="Group 8830" transform="translate(0)">
    <path id="Path_10712" data-name="Path 10712" d="M622.365,1375.286h13.671a2.535,2.535,0,0,1,2.532,2.532v8.76a2.534,2.534,0,0,1-2.532,2.531h-8.891l-4.584,3.077a.492.492,0,0,1-.273.083.488.488,0,0,1-.488-.489v-2.912c-.891-.378-1.966-1.195-1.966-2.289v-8.76A2.534,2.534,0,0,1,622.365,1375.286Zm-1.554,11.292c0,.573.855,1.241,1.624,1.483a.488.488,0,0,1,.342.466v2.336l3.946-2.648a.494.494,0,0,1,.273-.083h9.04a1.557,1.557,0,0,0,1.554-1.554v-8.76a1.556,1.556,0,0,0-1.554-1.554H622.365a1.555,1.555,0,0,0-1.554,1.554Z" transform="translate(-619.834 -1375.286)" fill="#f2d16a"/>
    <path id="Path_10713" data-name="Path 10713" d="M625.063,1380.488h12.143a.812.812,0,1,1,0,1.594H625.063a.812.812,0,1,1,0-1.594Zm0,1.086h12.143a.294.294,0,1,0,0-.577H625.063a.294.294,0,1,0,0,.577Z" transform="translate(-621.755 -1377.178)" fill="#f2d16a"/>
    <path id="Path_10714" data-name="Path 10714" d="M625.063,1384.792h12.143a.812.812,0,1,1,0,1.594H625.063a.812.812,0,1,1,0-1.594Zm0,1.085h12.143a.294.294,0,1,0,0-.576H625.063a.294.294,0,1,0,0,.576Z" transform="translate(-621.755 -1378.743)" fill="#f2d16a"/>
    <path id="Path_10715" data-name="Path 10715" d="M625.063,1388.948h12.143a.812.812,0,1,1,0,1.594H625.063a.812.812,0,1,1,0-1.594Zm0,1.085h12.143a.294.294,0,1,0,0-.576H625.063a.293.293,0,1,0,0,.576Z" transform="translate(-621.755 -1380.255)" fill="#f2d16a"/>
  </g>
</svg>
