<svg xmlns="http://www.w3.org/2000/svg" width="27.758" height="21.357" viewBox="0 0 27.758 21.357">
  <g id="Group_8785" data-name="Group 8785" transform="translate(0 0)">
    <path id="Path_10717" data-name="Path 10717" d="M-3209.943,703.818c-1.925,0-3.85,0-5.775-.005a.334.334,0,0,0-.383.285,2.948,2.948,0,0,1-2.8,2.069,2.947,2.947,0,0,1-2.772-2.061.352.352,0,0,0-.409-.292q-4.034.012-8.068,0a2.391,2.391,0,0,1-.433-.03.656.656,0,0,1-.531-.651.657.657,0,0,1,.542-.671,2.293,2.293,0,0,1,.4-.027q4.034,0,8.068,0a.371.371,0,0,0,.435-.3,2.944,2.944,0,0,1,2.781-2.049,2.948,2.948,0,0,1,2.774,2.059.352.352,0,0,0,.411.289q5.688-.01,11.377,0a2.339,2.339,0,0,1,.433.03.654.654,0,0,1,.526.655.654.654,0,0,1-.519.661,2.235,2.235,0,0,1-.433.032Q-3207.127,703.82-3209.943,703.818Zm-7.345-.682a1.629,1.629,0,0,0-1.6-1.673,1.635,1.635,0,0,0-1.6,1.678,1.638,1.638,0,0,0,1.592,1.659A1.628,1.628,0,0,0-3217.288,703.136Z" transform="translate(3231.111 -684.81)" fill="#3ababd"/>
    <path id="Path_10718" data-name="Path 10718" d="M-3221.735,138.2h-8.477a2.452,2.452,0,0,1-.376-.02.657.657,0,0,1-.55-.634.657.657,0,0,1,.523-.688,2.277,2.277,0,0,1,.433-.029q8.506,0,17.012,0c.265,0,.4-.051.5-.339a2.926,2.926,0,0,1,2.773-2.014,2.939,2.939,0,0,1,2.759,2.037.384.384,0,0,0,.451.318q1.247-.027,2.5,0a1.1,1.1,0,0,1,.565.172.59.59,0,0,1,.216.69.611.611,0,0,1-.589.49c-.542.015-1.083.01-1.625.012-.4,0-.794.008-1.19,0-.164,0-.233.051-.286.212a2.923,2.923,0,0,1-2.57,2.132,2.93,2.93,0,0,1-3.015-2.035.372.372,0,0,0-.425-.311Q-3217.424,138.2-3221.735,138.2Zm13.421-.657a1.628,1.628,0,0,0-1.609-1.7,1.634,1.634,0,0,0-1.594,1.626,1.641,1.641,0,0,0,1.6,1.711A1.628,1.628,0,0,0-3208.314,137.54Z" transform="translate(3231.139 -126.838)" fill="#3ababd"/>
    <path id="Path_10719" data-name="Path 10719" d="M-3225.941-426.99h-.342q-1.96,0-3.92,0a2.365,2.365,0,0,1-.4-.025.656.656,0,0,1-.527-.625.666.666,0,0,1,.461-.68,1.675,1.675,0,0,1,.431-.046q1.989-.005,3.978,0h.328a3.111,3.111,0,0,1,1.078-1.7,2.9,2.9,0,0,1,4.578,1.415.355.355,0,0,0,.406.293q7.767-.011,15.533,0a2.087,2.087,0,0,1,.461.04.656.656,0,0,1,.5.68.654.654,0,0,1-.549.635,2.9,2.9,0,0,1-.434.022q-7.723,0-15.446,0a.419.419,0,0,0-.483.351,2.942,2.942,0,0,1-2.782,2.008,2.99,2.99,0,0,1-2.764-2.045C-3225.874-426.775-3225.9-426.869-3225.941-426.99Zm4.5-.7a1.658,1.658,0,0,0-1.636-1.657,1.641,1.641,0,0,0-1.592,1.664,1.643,1.643,0,0,0,1.615,1.673A1.662,1.662,0,0,0-3221.439-427.687Z" transform="translate(3231.135 430.708)" fill="#3ababd"/>
  </g>
</svg>
