<svg xmlns="http://www.w3.org/2000/svg" width="11.21" height="14.884" viewBox="0 0 11.21 14.884">
  <path id="Path_10833" data-name="Path 10833" d="M487.262,826.336a8.8,8.8,0,0,0-.636-2.131c-.177-.4-.911-1.218-.929-1.605a2.108,2.108,0,0,1-.674,1.629c-.023-2.374-1.244-4.549-2.43-6.606a17.3,17.3,0,0,1-1.539,5.7,6.208,6.208,0,0,0-.13-2.64c-1.248,1.825-3.432,2.941-4.369,4.944a4.832,4.832,0,0,0-.061,3.9,4.729,4.729,0,0,0,2.362,2.341v0a2.707,2.707,0,0,1-.979-1.391,2.852,2.852,0,0,1,.334-2.279c.7-1.1,2.065-1.587,2.935-2.559a3.662,3.662,0,0,1-.126,1.555,10.209,10.209,0,0,0,1.337-3.221,8.247,8.247,0,0,1,.917,4.052,1.244,1.244,0,0,0,.519-.9c-.019.228.348.763.421,1.01a5.192,5.192,0,0,1,.21,1.3,3.424,3.424,0,0,1-.764,2.127,2.572,2.572,0,0,1-1.316.945v0a4.93,4.93,0,0,0,4.1-2.43A5.8,5.8,0,0,0,487.262,826.336Z" transform="translate(-476.113 -817.624)" fill="#3ababd"/>
</svg>
