<svg xmlns="http://www.w3.org/2000/svg" width="20.034" height="10.902" viewBox="0 0 20.034 10.902">
  <g id="Group_8834" data-name="Group 8834" transform="translate(257.673 -120.84)">
    <path id="Path_10828" data-name="Path 10828" d="M-250.215,123.01a4.372,4.372,0,0,0-.774.07,2.188,2.188,0,0,0-1.811-2.13c-2.121-.575-3.429,1.195-3.326,3.1.069,1.271-1.039,1.477-1.547.98a1.623,1.623,0,0,0,.936,1.14c.74.4,2.27.486,2.726-2,.212-1.156,1.375-1.749,1.932-.742a4.371,4.371,0,0,0-2.5,3.947,4.371,4.371,0,0,0,4.366,4.366,4.371,4.371,0,0,0,4.366-4.366A4.371,4.371,0,0,0-250.215,123.01Zm3.787,4.366a3.791,3.791,0,0,1-3.787,3.787A3.791,3.791,0,0,1-254,127.376a3.774,3.774,0,0,1,.164-1.1,3.112,3.112,0,0,1,1.987-.794l.287-.948.194.884s2.927-.642,4.8.947a3.781,3.781,0,0,1,.342.328,3.781,3.781,0,0,0-.342-.328A3.777,3.777,0,0,1-246.428,127.376Z" fill="#3ababd"/>
    <path id="Path_10831" data-name="Path 10831" d="M-36.614,139.741a1.2,1.2,0,0,1,.6-.5.9.9,0,0,0-.79.105A1.3,1.3,0,0,0-37.479,138a1.293,1.293,0,0,1,.1,1.439,4.35,4.35,0,0,0-1.211-.172,4.371,4.371,0,0,0-4.366,4.366A4.371,4.371,0,0,0-38.59,148a4.371,4.371,0,0,0,4.366-4.366A4.369,4.369,0,0,0-36.614,139.741Zm-1.976,7.678a3.791,3.791,0,0,1-3.787-3.787,3.782,3.782,0,0,1,.107-.893c.961-.165,3.784-.778,5.068-2.424a5.962,5.962,0,0,0,2.363,2.81,3.175,3.175,0,0,0,.308.138,3.175,3.175,0,0,1-.308-.138,3.8,3.8,0,0,1,.035.507A3.791,3.791,0,0,1-38.59,147.419Z" transform="translate(-203.415 -16.256)" fill="#3ababd"/>
  </g>
</svg>
