<svg xmlns="http://www.w3.org/2000/svg" width="9.216" height="15.335" viewBox="0 0 9.216 15.335">
  <path id="Path_10709" data-name="Path 10709" d="M440.514,1247.157a4.608,4.608,0,1,0-8.955,0,6.894,6.894,0,0,0,.5,1.793c.453.951,2.359,4.091,3.233,5.521-1.182.151-1.731.659-1.731,1.139,0,.571.774,1.185,2.473,1.185s2.473-.614,2.473-1.185c0-.479-.549-.988-1.731-1.139.875-1.43,2.78-4.57,3.233-5.521A6.891,6.891,0,0,0,440.514,1247.157Zm-2.717,8.453c-.048.135-.643.473-1.761.473s-1.726-.346-1.761-.469c.031-.118.517-.409,1.436-.466l.023.038a.356.356,0,0,0,.606,0l.023-.038C437.269,1255.2,437.754,1255.488,437.8,1255.609ZM439.82,1247c0,.009,0,.019-.006.028a6.336,6.336,0,0,1-.445,1.615c-.457.961-2.544,4.387-3.332,5.675-.788-1.288-2.875-4.714-3.332-5.675a6.3,6.3,0,0,1-.446-1.615.207.207,0,0,0-.006-.028,3.9,3.9,0,1,1,7.566,0Z" transform="translate(-431.429 -1241.459)" fill="#27c5af"/>
</svg>
