<svg xmlns="http://www.w3.org/2000/svg" width="35.27" height="23.64"><path d="M10.16 23.64h23.972a1.15 1.15 0 0 0 1.138-1.153c0-.64-.507-1.154-1.138-1.154H10.161a1.15 1.15 0 0 0-1.138 1.154c0 .628.518 1.153 1.138 1.153Zm0-10.667h23.972a1.15 1.15 0 0 0 1.138-1.153c0-.64-.507-1.153-1.138-1.153H10.161a1.15 1.15 0 0 0-1.138 1.153c0 .628.518 1.153 1.138 1.153ZM1.139 2.307h32.994a1.15 1.15 0 0 0 1.138-1.154C35.27.513 34.763 0 34.132 0H1.138C.507 0 0 .514 0 1.153a1.15 1.15 0 0 0 1.138 1.154Z" fill="#eff0f2" fill-rule="evenodd" data-name="Path 8582"/></svg>