<svg xmlns="http://www.w3.org/2000/svg" width="194.466" height="154.6"><path d="M169.379 12.996c-1.094-1.56-2.945-2.262-4.758-1.993-.069-.016-.138-.046-.207-.056L90.193.053a4.899 4.899 0 0 0-2.41.25L28.336 22.09c-.026.01-.049.027-.075.036-.062.027-.122.066-.187.09a5.099 5.099 0 0 0-1.16.708 4.79 4.79 0 0 0-.817.834c-.013.02-.033.03-.046.05L.95 58.147a4.938 4.938 0 0 0-.663 4.567 4.913 4.913 0 0 0 3.408 3.11l21.783 5.624v53.851a4.93 4.93 0 0 0 3.487 4.712l79.754 24.37c.026.012.055.002.082.016.427.118.873.193 1.32.197.01 0 .023.006.036.006h.003c.47 0 .93-.085 1.389-.22.144-.046.28-.108.427-.17.194-.073.384-.125.574-.224l57.23-31.76a4.926 4.926 0 0 0 2.535-4.308V64.076l19.36-9.292a4.93 4.93 0 0 0 1.9-7.27L169.38 12.997Zm-79.38-3.014 57.933 8.504-38.43 17.869-60.854-11.213 41.35-15.16ZM32.18 32.122l69.73 12.851L81.416 75.72l-68.23-17.615 18.995-25.982Zm3.146 89.532V73.99l47.012 12.139a4.928 4.928 0 0 0 5.329-2.036L105.23 57.75v85.264l-69.904-21.359Zm127.134-6.639-47.383 26.29V63.513l8.651 18.383a4.924 4.924 0 0 0 2.804 2.539 4.76 4.76 0 0 0 1.649.285c.732 0 1.458-.164 2.13-.48l32.142-15.425.007 46.201Zm-31.928-41.804-13.814-29.347 46.96-21.835 18.499 26.389-51.645 24.793Z" fill="#f2d16a" fill-rule="evenodd" data-name="Path 61"/></svg>