<svg xmlns="http://www.w3.org/2000/svg" width="23.6" height="26.123" viewBox="24 50 23.6 26.123"><g data-name="Group 7930"><g data-name="Group 7927"><path d="M35.8 76.123c-1.387 0-2.674-.852-3.272-2.182a1.109 1.109 0 0 0-.997-.65h-5.175c-1.305 0-2.356-1.12-2.356-2.487 0-1.369 1.051-2.488 2.347-2.488.499 0 .898-.42.898-.937v-7.185c0-4.984 3.833-9.031 8.555-9.031 4.713 0 8.555 4.047 8.555 9.031v7.185c0 .516.4.937.889.937 1.296 0 2.356 1.12 2.356 2.488 0 1.368-1.06 2.487-2.356 2.487h-5.185c-.425 0-.815.258-.996.66-.598 1.32-1.876 2.172-3.263 2.172Zm-2.33-2.832.073.143c.417.91 1.296 1.502 2.257 1.502.952 0 1.83-.593 2.248-1.502l.072-.143h-4.65Zm6.59-1.196h5.184c.67 0 1.223-.584 1.223-1.291 0-.718-.553-1.302-1.223-1.302-1.115 0-2.022-.956-2.022-2.123v-7.185c0-4.324-3.335-7.845-7.422-7.845-4.097 0-7.432 3.52-7.432 7.845v7.185c0 1.167-.906 2.123-2.012 2.123-.68 0-1.232.584-1.232 1.302 0 .707.553 1.291 1.232 1.291H40.06Z" fill="#eff0f2" fill-rule="evenodd" data-name="Path 8580"/></g><g data-name="Group 7929"><g data-name="Group 7928"><path d="M40.422 55.768c-1.628 0-2.899-1.263-2.899-2.884 0-1.613 1.27-2.884 2.899-2.884 1.59 0 2.861 1.27 2.861 2.884 0 1.62-1.27 2.884-2.861 2.884Z" fill="#eff0f2" fill-rule="evenodd" data-name="Path 8581"/></g></g></g></svg>