<svg xmlns="http://www.w3.org/2000/svg" width="25.143" height="22.811" viewBox="0 0 25.143 22.811">
  <g id="Group_8832" data-name="Group 8832" transform="translate(-897.172 -504.932)">
    <path id="Path_10790" data-name="Path 10790" d="M960.585,543.521c1.073.023,2.176-.107,3.245-.186.613-.045-.209-.977-.676-.942-.812.06-1.691.2-2.533.206q.072-.374.136-.749.1-.591.183-1.185c.127-.924.215-1.852.278-2.782.033-.492-1.081-1.071-1.117-.535-.072,1.064-.178,2.124-.335,3.178-.1.669-.565,1.782-.284,2.42A1.094,1.094,0,0,0,960.585,543.521Z" transform="translate(-50.42 -26.093)" fill="#f2d16a"/>
    <path id="Path_10789" data-name="Path 10789" d="M929.87,535.977a8.55,8.55,0,0,0,9.8-11.948,8.48,8.48,0,0,0-16.218,3.536A7.958,7.958,0,0,0,929.87,535.977Zm-5.324-6.992h1.109c.265,0,.42-.182.308-.44a.918.918,0,0,0-.734-.514h-.74a8.579,8.579,0,0,1,1.57-4.988.755.755,0,0,0,.086.021l.034.023.223.156.521.363c.18.126.572.288.737.052s-.127-.553-.3-.675l-.745-.518-.059-.041a6.735,6.735,0,0,1,2.858-1.914,8.185,8.185,0,0,1,1.561-.3q-.015.347,0,.7c.018.473,1.142.971,1.116.313a6.543,6.543,0,0,1,.046-1.032,7.862,7.862,0,0,1,4.742,1.853,6.786,6.786,0,0,0-1.052.764c-.216.191-.084.461.094.637.144.141.581.416.791.229a6.8,6.8,0,0,1,1.029-.75,7.17,7.17,0,0,1,.56.783,7.545,7.545,0,0,1,1.093,4.206h-1.036c-.265,0-.42.182-.308.441a.919.919,0,0,0,.734.514h.521a7.647,7.647,0,0,1-.544,1.881,6.931,6.931,0,0,1-1.261,1.933l-.034-.02-.053-.03-.083-.052q-.109-.071-.214-.15l-.075-.059c.007.005-.006-.007-.045-.041-.062-.06-.126-.119-.186-.181-.174-.178-.546-.379-.791-.229s-.049.49.094.637a4.813,4.813,0,0,0,.827.669,7.813,7.813,0,0,1-4.609,1.823,6.421,6.421,0,0,0-.1-.954.881.881,0,0,0-.632-.609c-.215-.058-.541,0-.485.3a5.841,5.841,0,0,1,.107,1.265,7.648,7.648,0,0,1-4.242-1.582,5.473,5.473,0,0,0,1.038-.984c.32-.395-.705-1.138-1.038-.727a4.762,4.762,0,0,1-.9.849,6.6,6.6,0,0,1-1.5-3.359C924.566,529.157,924.556,529.071,924.546,528.985Z" transform="translate(-21.285 -11.502)" fill="#f2d16a"/>
    <path id="Path_10791" data-name="Path 10791" d="M921.35,511.639a11.849,11.849,0,0,0-9.075-6.7c-.723-.116-.041.879.426.954a9.936,9.936,0,0,1,7.543,5.531,10.76,10.76,0,0,1,.262,8.2,11.123,11.123,0,0,1-5.687,5.931c-2.606,1.248-6.433,1.956-9.03.356-3.012-1.856-5.654-4.888-5.552-8.546q.415.463.848.909c.171.175.549.383.791.229s.052-.487-.094-.637q-.793-.813-1.515-1.689a.881.881,0,0,0-.788-.386.331.331,0,0,0-.078.031.3.3,0,0,0-.065.016.319.319,0,0,0-.327.13q-.906,1.412-1.789,2.837c-.276.446.768,1.163,1.038.727q.452-.73.91-1.455a11.464,11.464,0,0,0,4.614,7.343,9.367,9.367,0,0,0,4.827,2.242,12.868,12.868,0,0,0,5.138-.482,12.13,12.13,0,0,0,7.478-6.084A11.4,11.4,0,0,0,921.35,511.639Z" transform="translate(0)" fill="#f2d16a"/>
  </g>
</svg>
