<svg xmlns="http://www.w3.org/2000/svg" width="12.232" height="12.334" viewBox="0 0 12.232 12.334">
  <g id="Group_8784" data-name="Group 8784" transform="translate(0)">
    <path id="Path_10706" data-name="Path 10706" d="M874.164,806.64a1.9,1.9,0,0,1,.142.177,2.257,2.257,0,0,1,.531,2.093,9.581,9.581,0,0,1-8.516,7.7c-.091.008-.181.012-.271.012a2.505,2.505,0,0,1-1.305-.343,1.926,1.926,0,0,1-.465-.375l-.362-.4a1.911,1.911,0,0,1,.135-2.7l.611-.552a1.909,1.909,0,0,1,2.7.135l.362.4a1.9,1.9,0,0,1,.338.524,6.758,6.758,0,0,0,3.359-3.073,1.911,1.911,0,0,1-.7-.489l-.362-.4a1.909,1.909,0,0,1,.135-2.7l.611-.552a1.911,1.911,0,0,1,2.7.135Zm-.726-.071a1.419,1.419,0,0,0-2-.1l-.611.552a1.419,1.419,0,0,0-.1,2l.362.4h0a1.416,1.416,0,0,0,.642.407l.11.033a.245.245,0,0,1,.149.344l-.051.1a7.25,7.25,0,0,1-3.835,3.517l-.1.038a.245.245,0,0,1-.322-.151l-.032-.1a1.407,1.407,0,0,0-.293-.5l-.362-.4a1.418,1.418,0,0,0-2-.1l-.611.552a1.419,1.419,0,0,0-.1,2l.362.4a1.438,1.438,0,0,0,.353.283,2.1,2.1,0,0,0,1.281.263,9.087,9.087,0,0,0,8.078-7.3,1.8,1.8,0,0,0-.382-1.64.2.2,0,0,1-.022-.022l-.017-.018c-.007-.008-.014-.017-.02-.025a1.363,1.363,0,0,0-.113-.143Z" transform="translate(-862.658 -804.288)" fill="#27c5af"/>
    <path id="Path_10707" data-name="Path 10707" d="M879.1,807.858a5.8,5.8,0,0,1,5.789-5.789.507.507,0,1,1,0,1.014,4.781,4.781,0,0,0-4.775,4.775.507.507,0,1,1-1.014,0Zm.507.263a.264.264,0,0,0,.263-.263,5.025,5.025,0,0,1,5.019-5.019.263.263,0,1,0,0-.527,5.552,5.552,0,0,0-5.545,5.545A.263.263,0,0,0,879.6,808.122Z" transform="translate(-879.095 -802.069)" fill="#27c5af"/>
    <path id="Path_10708" data-name="Path 10708" d="M882.9,807.114a.507.507,0,1,1,0,1.014,2.956,2.956,0,0,0-2.952,2.953.507.507,0,1,1-1.014,0A3.971,3.971,0,0,1,882.9,807.114Zm-3.459,4.23a.264.264,0,0,0,.263-.263,3.2,3.2,0,0,1,3.2-3.2.263.263,0,1,0,0-.526,3.727,3.727,0,0,0-3.722,3.722A.264.264,0,0,0,879.436,811.344Z" transform="translate(-877.355 -805.54)" fill="#27c5af"/>
  </g>
</svg>
