<svg xmlns="http://www.w3.org/2000/svg" width="21.725" height="22.722" viewBox="120.33 884.022 21.725 22.722"><g data-name="Group 7921"><g data-name="Path 8574"><path d="M135.63 906.744c-.326-.123-.563-.362-.8-.605-1.453-1.484-2.912-2.964-4.363-4.451-.119-.122-.196-.142-.35-.053-2.665 1.556-6.08.001-6.678-3.036-.497-2.525 1.286-4.992 3.839-5.303 1.413-.173 2.641.237 3.686 1.2.172.159.202.333.083.463-.118.128-.295.12-.469-.043-.825-.771-1.802-1.122-2.93-1.086-1.748.057-3.367 1.469-3.647 3.196-.361 2.229.982 4.17 3.195 4.588.975.183 1.895-.008 2.744-.526.075-.046.149-.096.225-.141.153-.09.295-.081.421.051.036.038.073.074.11.11l4.709 4.796c.29.296.54.34.746.138.209-.205.166-.45-.13-.745l-4.784-4.753c-.288-.286-.293-.337-.061-.678a3.831 3.831 0 0 0 .683-2.03c.01-.24.117-.37.295-.366.18.003.286.139.277.376a4.454 4.454 0 0 1-.63 2.1c-.036.064-.075.127-.112.19-.004.006-.003.014-.048.066.072.051.154.093.216.155 1.544 1.53 3.086 3.063 4.627 4.597.459.457.5 1.065.083 1.475-.136.134-.327.211-.493.315h-.444Z" fill="#3ababd" fill-rule="evenodd"/><path d="M135.63 906.744c-.326-.123-.563-.362-.8-.605-1.453-1.484-2.912-2.964-4.363-4.451-.119-.122-.196-.142-.35-.053-2.665 1.556-6.08.001-6.678-3.036-.497-2.525 1.286-4.992 3.839-5.303 1.413-.173 2.641.237 3.686 1.2.172.159.202.333.083.463-.118.128-.295.12-.469-.043-.825-.771-1.802-1.122-2.93-1.086-1.748.057-3.367 1.469-3.647 3.196-.361 2.229.982 4.17 3.195 4.588.975.183 1.895-.008 2.744-.526.075-.046.149-.096.225-.141.153-.09.295-.081.421.051.036.038.073.074.11.11l4.709 4.796c.29.296.54.34.746.138.209-.205.166-.45-.13-.745l-4.784-4.753c-.288-.286-.293-.337-.061-.678a3.831 3.831 0 0 0 .683-2.03c.01-.24.117-.37.295-.366.18.003.286.139.277.376a4.454 4.454 0 0 1-.63 2.1c-.036.064-.075.127-.112.19-.004.006-.003.014-.048.066.072.051.154.093.216.155 1.544 1.53 3.086 3.063 4.627 4.597.459.457.5 1.065.083 1.475-.136.134-.327.211-.493.315h-.444Z" stroke-linejoin="round" stroke-linecap="round" stroke-width=".3" stroke="#3ababd" fill="transparent"/></g><g data-name="Path 8575"><path d="M142.054 894.365c0 2.144.004 4.288-.007 6.433 0 .26-.041.537-.14.775-.201.478-.72.72-1.238.562-.67-.203-1.325-.458-1.984-.696-.938-.338-1.873-.68-2.81-1.023-.324-.12-.62-.07-.9.132-.18.13-.366.25-.551.371-.139.091-.282.12-.388-.038-.109-.161-.019-.278.117-.37.202-.137.405-.272.607-.408.417-.279.868-.279 1.319-.125.782.268 1.557.556 2.334.838.7.255 1.4.514 2.1.77.09.033.182.064.275.084.374.08.684-.13.746-.506.02-.123.026-.25.026-.375.002-4.281.002-8.562.001-12.844 0-.889-.44-1.538-1.266-1.865l-3.438-1.362c-.836-.33-1.623-.237-2.353.284-1.678 1.2-3.353 2.402-5.03 3.603-.03.022-.06.042-.09.065-.582.452-1.21.624-1.924.337-.156-.063-.327-.089-.49-.137-.155-.045-.216-.156-.173-.307.043-.145.159-.187.3-.154.257.063.518.119.771.199.378.12.699.037 1.016-.193 1.108-.802 2.225-1.59 3.339-2.384.673-.48 1.348-.96 2.018-1.447.856-.622 1.777-.717 2.75-.339 1.184.46 2.363.932 3.542 1.402a2.372 2.372 0 0 1 1.52 2.24c.003 2.16 0 4.319 0 6.478Z" fill="#3ababd" fill-rule="evenodd"/><path d="M142.054 894.365c0 2.144.004 4.288-.007 6.433 0 .26-.041.537-.14.775-.201.478-.72.72-1.238.562-.67-.203-1.325-.458-1.984-.696-.938-.338-1.873-.68-2.81-1.023-.324-.12-.62-.07-.9.132-.18.13-.366.25-.551.371-.139.091-.282.12-.388-.038-.109-.161-.019-.278.117-.37.202-.137.405-.272.607-.408.417-.279.868-.279 1.319-.125.782.268 1.557.556 2.334.838.7.255 1.4.514 2.1.77.09.033.182.064.275.084.374.08.684-.13.746-.506.02-.123.026-.25.026-.375.002-4.281.002-8.562.001-12.844 0-.889-.44-1.538-1.266-1.865l-3.438-1.362c-.836-.33-1.623-.237-2.353.284-1.678 1.2-3.353 2.402-5.03 3.603-.03.022-.06.042-.09.065-.582.452-1.21.624-1.924.337-.156-.063-.327-.089-.49-.137-.155-.045-.216-.156-.173-.307.043-.145.159-.187.3-.154.257.063.518.119.771.199.378.12.699.037 1.016-.193 1.108-.802 2.225-1.59 3.339-2.384.673-.48 1.348-.96 2.018-1.447.856-.622 1.777-.717 2.75-.339 1.184.46 2.363.932 3.542 1.402a2.372 2.372 0 0 1 1.52 2.24c.003 2.16 0 4.319 0 6.478Z" stroke-linejoin="round" stroke-linecap="round" stroke="#3ababd" fill="transparent"/></g><g data-name="Path 8576"><path d="M120.822 895.231v6.699c0 .936.427 1.545 1.31 1.863 1.305.47 2.614.93 3.916 1.412.871.322 1.68.167 2.428-.317.507-.328.972-.722 1.456-1.087.035-.026.069-.056.104-.083.13-.099.264-.117.37.021.105.137.06.268-.07.366-.493.377-.984.758-1.483 1.126-.367.27-.779.447-1.222.557a2.771 2.771 0 0 1-1.634-.08c-1.375-.494-2.75-.99-4.124-1.487-.945-.342-1.541-1.182-1.542-2.188-.002-4.54-.002-9.079 0-13.619 0-.513.118-.991.64-1.21.218-.09.505-.131.727-.071.596.162 1.176.387 1.76.594.14.05.221.16.162.315-.062.164-.197.19-.347.136-.46-.162-.917-.329-1.376-.492a2.714 2.714 0 0 0-.275-.085c-.408-.098-.72.115-.777.534-.017.124-.022.25-.022.376v6.72Z" fill="#3ababd" fill-rule="evenodd"/><path d="M120.822 895.231v6.699c0 .936.427 1.545 1.31 1.863 1.305.47 2.614.93 3.916 1.412.871.322 1.68.167 2.428-.317.507-.328.972-.722 1.456-1.087.035-.026.069-.056.104-.083.13-.099.264-.117.37.021.105.137.06.268-.07.366-.493.377-.984.758-1.483 1.126-.367.27-.779.447-1.222.557a2.771 2.771 0 0 1-1.634-.08c-1.375-.494-2.75-.99-4.124-1.487-.945-.342-1.541-1.182-1.542-2.188-.002-4.54-.002-9.079 0-13.619 0-.513.118-.991.64-1.21.218-.09.505-.131.727-.071.596.162 1.176.387 1.76.594.14.05.221.16.162.315-.062.164-.197.19-.347.136-.46-.162-.917-.329-1.376-.492a2.714 2.714 0 0 0-.275-.085c-.408-.098-.72.115-.777.534-.017.124-.022.25-.022.376v6.72Z" stroke-linejoin="round" stroke-linecap="round" stroke="#3ababd" fill="transparent"/></g></g></svg>