<svg xmlns="http://www.w3.org/2000/svg" width="13.978" height="13.982" viewBox="6.989 6.989 13.978 13.982"><path d="M19.813 13.978c0-.764.477-1.416 1.154-1.678a7.13 7.13 0 0 0-.863-2.079 1.8 1.8 0 0 1-2.002-.368 1.8 1.8 0 0 1-.37-2.001 7.108 7.108 0 0 0-2.076-.863 1.8 1.8 0 0 1-1.678 1.154A1.8 1.8 0 0 1 12.3 6.989a7.13 7.13 0 0 0-2.078.863 1.795 1.795 0 0 1-2.374 2.37 7.287 7.287 0 0 0-.859 2.082 1.797 1.797 0 0 1 .004 3.356 7.13 7.13 0 0 0 .862 2.078 1.8 1.8 0 0 1 1.998.371 1.8 1.8 0 0 1 .372 1.999c.634.39 1.336.684 2.079.863a1.792 1.792 0 0 1 3.349 0 7.13 7.13 0 0 0 2.078-.863 1.802 1.802 0 0 1 .371-1.998 1.802 1.802 0 0 1 1.998-.371c.39-.634.685-1.337.864-2.08a1.807 1.807 0 0 1-1.15-1.681Zm-5.802 2.908a2.911 2.911 0 1 1 0-5.824 2.911 2.911 0 1 1 0 5.824Z" fill="#f2d16a" fill-rule="evenodd" data-name="Icon ionic-ios-settings"/></svg>