<svg xmlns="http://www.w3.org/2000/svg" width="23.363" height="23.788" viewBox="36.31 882.956 23.363 23.788"><path d="M46.498 884.11a1.544 1.544 0 0 1 2.988 0l1.681 5.499c.21.688.813 1.154 1.495 1.154h5.437c1.523 0 2.155 2.07.924 3.022l-4.4 3.398c-.55.425-.781 1.179-.57 1.867l1.68 5.5c.47 1.538-1.186 2.819-2.418 1.867l-4.4-3.398a1.496 1.496 0 0 0-1.847 0l-4.4 3.398c-1.231.952-2.887-.33-2.417-1.868l1.68-5.499c.211-.688-.02-1.442-.57-1.867l-4.4-3.398c-1.23-.952-.6-3.022.923-3.022h5.438c.682 0 1.284-.466 1.495-1.154l1.68-5.5Z" fill="#3ababd" fill-rule="evenodd" data-name="Path 8579"/></svg>