<svg xmlns="http://www.w3.org/2000/svg" width="15.428" height="14.754" viewBox="387 380.5 15.428 14.754"><path d="m395.959 381.463 1.74 3.526a.83.83 0 0 0 .625.454l3.892.566a.83.83 0 0 1 .46 1.417l-2.815 2.744a.83.83 0 0 0-.24.736l.665 3.875a.831.831 0 0 1-1.205.876l-3.48-1.83a.832.832 0 0 0-.774 0l-3.48 1.83a.83.83 0 0 1-1.205-.876l.664-3.875a.83.83 0 0 0-.239-.736l-2.815-2.744a.83.83 0 0 1 .46-1.417l3.891-.566a.83.83 0 0 0 .626-.454l1.74-3.526a.83.83 0 0 1 1.49 0Z" stroke-linejoin="round" stroke-linecap="round" stroke="#f2d16a" fill="transparent" data-name="star-2"/></svg>