<svg xmlns="http://www.w3.org/2000/svg" width="17.204" height="22.619" viewBox="369 883.381 17.204 22.619"><g data-name="man-user"><path d="M377.602 894.443c2.515 0 4.554-2.476 4.554-5.53 0-3.055-.67-5.532-4.554-5.532-3.884 0-4.554 2.477-4.554 5.531 0 3.055 2.039 5.531 4.554 5.531Z" fill="#3ababd" fill-rule="evenodd" data-name="Path 4253"/><path d="M369.001 902.888c0-.186-.002-.052 0 0Z" fill="#3ababd" fill-rule="evenodd" data-name="Path 4254"/><path d="M386.203 903.034c.002-.051 0-.354 0 0Z" fill="#3ababd" fill-rule="evenodd" data-name="Path 4255"/><path d="M386.193 902.665c-.084-5.321-.78-6.837-6.098-7.797 0 0-.748.954-2.493.954-1.745 0-2.494-.954-2.494-.954-5.26.95-5.997 2.443-6.094 7.624-.008.423-.012.446-.013.397v.559s1.267 2.552 8.6 2.552c7.335 0 8.601-2.552 8.601-2.552v-.414c0 .03-.004-.028-.01-.369Z" fill="#3ababd" fill-rule="evenodd" data-name="Path 4256"/></g></svg>