<svg xmlns="http://www.w3.org/2000/svg" width="23.091" height="23.085"><g data-name="Group 1192" clip-path="url(&quot;#a&quot;)"><path d="M.007 7.708h23.055c.005.122.015.234.015.346 0 3.034.005 6.068 0 9.101-.006 3.227-2.733 5.932-5.964 5.93-3.697-.002-7.395 0-11.092 0a6.011 6.011 0 0 1-6.014-6.038c.002-2.98 0-5.962 0-8.943v-.396m8.793 6.85h.005c0 .84-.025 1.684.007 2.524.033.842.89 1.315 1.62.907 1.46-.817 2.914-1.642 4.362-2.48.809-.467.788-1.432-.029-1.898-1.406-.802-2.815-1.603-4.225-2.4-.887-.5-1.726-.013-1.738 1.01-.009.778-.002 1.557-.002 2.336" fill="#3ababd" fill-rule="evenodd" data-name="Path 2825"/><path d="M13.536.06c.045-.023.063-.04.081-.04 1.326.004 2.658-.063 3.978.029 3.26.225 5.75 3.205 5.475 6.468-.002.02-.014.04-.028.08-.072.005-.153.016-.234.016-1.726.002-3.453 0-5.18.005-.183 0-.308-.032-.41-.209-1.203-2.076-2.415-4.147-3.624-6.22-.02-.035-.034-.075-.058-.129" fill="#3ababd" fill-rule="evenodd" data-name="Path 2826"/><path d="M16.07 6.614H13.94c-1.159 0-2.317.005-3.475-.008-.122 0-.297-.074-.354-.169C8.88 4.352 7.662 2.26 6.443.168c-.02-.033-.03-.072-.056-.138.122-.006.212-.016.303-.016 1.749 0 3.497.002 5.245-.002.19 0 .327.024.439.217 1.196 2.068 2.404 4.13 3.607 6.194.026.043.044.091.09.191" fill="#3ababd" fill-rule="evenodd" data-name="Path 2827"/><path d="M8.922 6.599H.027C-.039 5.826.01 5.063.25 4.329.982 2.083 2.505.685 4.805.132c.24-.058.372-.008.502.22C6.453 2.338 7.613 4.317 8.77 6.3c.05.088.093.18.153.298" fill="#3ababd" fill-rule="evenodd" data-name="Path 2828"/></g><defs><clipPath id="a"><path d="M0 0h23.09v23.085H0V0z" data-name="Rectangle 17373"/></clipPath></defs></svg>