<svg xmlns="http://www.w3.org/2000/svg" width="17.619" height="17.601" viewBox="0 0 17.619 17.601">
  <path id="Path_10711" data-name="Path 10711" d="M370.787,1260.429l-.846,0a8.807,8.807,0,0,1,0-17.6l.838,0,.008.005a8.809,8.809,0,0,1,0,17.593Zm5.32-3.1a9.84,9.84,0,0,0-1.8-1.035,10.541,10.541,0,0,1-2.509,3.33A8.146,8.146,0,0,0,376.106,1257.327Zm-5.451,2.35a10.076,10.076,0,0,0,3.015-3.641,10.17,10.17,0,0,0-3.015-.6Zm0-4.921a10.845,10.845,0,0,1,3.29.656,10.031,10.031,0,0,0,.7-3.149l-3.993,0Zm0-3.177,4.015,0a10.158,10.158,0,0,0-.548-3.259,10.694,10.694,0,0,1-3.467.735Zm-1.705,8.064a10.527,10.527,0,0,1-2.592-3.475,9.841,9.841,0,0,0-1.938,1.052A8.126,8.126,0,0,0,368.95,1259.643Zm-4.981-2.938a10.492,10.492,0,0,1,2.126-1.164,10.751,10.751,0,0,1-.7-3.284l-3.179,0A8.05,8.05,0,0,0,363.969,1256.705Zm-.255-9.81a8.046,8.046,0,0,0-1.527,4.679l3.184,0a10.839,10.839,0,0,1,.557-3.39A10.8,10.8,0,0,1,363.714,1246.9Zm.421-.536a10.041,10.041,0,0,0,2.03,1.188,10.653,10.653,0,0,1,2.787-3.926A8.089,8.089,0,0,0,364.135,1246.359Zm5.84-2.7a10,10,0,0,0-3.177,4.141,10.027,10.027,0,0,0,3.177.585Zm0,5.408a10.677,10.677,0,0,1-3.411-.628,10.174,10.174,0,0,0-.51,3.139l3.922,0Zm0,3.195-3.9,0a10.074,10.074,0,0,0,.66,3.047,10.873,10.873,0,0,1,3.24-.557Zm0,3.168a10.184,10.184,0,0,0-2.973.5,10.049,10.049,0,0,0,2.973,3.673Zm.681-11.842v4.789a10.033,10.033,0,0,0,3.222-.689A10.011,10.011,0,0,0,370.656,1243.587Zm1.139.055a10.666,10.666,0,0,1,2.708,3.773,10.017,10.017,0,0,0,1.889-1.172A8.112,8.112,0,0,0,371.8,1243.642Zm5.027,3.128a10.713,10.713,0,0,1-2.073,1.281,10.834,10.834,0,0,1,.6,3.53h3.091A8.034,8.034,0,0,0,376.823,1246.77Zm1.595,5.494h-3.086a10.728,10.728,0,0,1-.753,3.4,10.53,10.53,0,0,1,1.988,1.152A8.037,8.037,0,0,0,378.417,1252.264Z" transform="translate(-361.506 -1242.83)" fill="#f2d16a"/>
</svg>
