<svg xmlns="http://www.w3.org/2000/svg" width="12.385" height="11.491" viewBox="0 0 12.385 11.491">
  <g id="Group_8836" data-name="Group 8836" transform="translate(-343.808 -1062.755)">
    <path id="Path_10733" data-name="Path 10733" d="M168.44,893.489a1.428,1.428,0,1,0,1.428-1.429A1.43,1.43,0,0,0,168.44,893.489Zm1.428,1.013a1.013,1.013,0,1,1,1.013-1.013A1.014,1.014,0,0,1,169.868,894.5Z" transform="translate(180.131 179.329)" fill="#3ababd"/>
    <path id="Path_10734" data-name="Path 10734" d="M154.763,869.719a.619.619,0,0,0,.439-.187,7.169,7.169,0,0,1,10.247,0,.624.624,0,1,0,.891-.873,8.416,8.416,0,0,0-12.029,0,.624.624,0,0,0,.445,1.06Zm-.155-.769a8,8,0,0,1,11.434,0,.207.207,0,0,1,0,.294.213.213,0,0,1-.294,0,7.584,7.584,0,0,0-10.841,0,.208.208,0,0,1-.3-.291Z" transform="translate(189.675 196.625)" fill="#3ababd"/>
    <path id="Path_10735" data-name="Path 10735" d="M167.936,876.648a6.169,6.169,0,0,0-8.855,0,.624.624,0,0,0,.894.869,4.922,4.922,0,0,1,7.066,0,.624.624,0,0,0,.882.013A.624.624,0,0,0,167.936,876.648Zm-.3.584a.213.213,0,0,1-.294,0,5.338,5.338,0,0,0-7.662,0,.208.208,0,0,1-.3-.29,5.754,5.754,0,0,1,8.258,0A.208.208,0,0,1,167.633,877.232Z" transform="translate(186.492 190.859)" fill="#3ababd"/>
    <path id="Path_10736" data-name="Path 10736" d="M168.949,886.283a.623.623,0,0,0,.451-1.054,4.111,4.111,0,0,0-5.949,0,.624.624,0,0,0,.45,1.054h.015a.617.617,0,0,0,.437-.193,2.865,2.865,0,0,1,4.146,0A.626.626,0,0,0,168.949,886.283Zm-5.191-.473a.208.208,0,0,1-.007-.294,3.7,3.7,0,0,1,5.348,0,.209.209,0,0,1,.058.149.207.207,0,0,1-.065.145.212.212,0,0,1-.294-.007,3.28,3.28,0,0,0-4.747,0,.207.207,0,0,1-.146.064A.21.21,0,0,1,163.758,885.81Z" transform="translate(183.574 184.735)" fill="#3ababd"/>
  </g>
</svg>
