<svg xmlns="http://www.w3.org/2000/svg" width="16.427" height="16.427"><path d="M8.213 0C3.685 0 0 3.685 0 8.213c0 4.529 3.685 8.214 8.213 8.214 4.529 0 8.214-3.685 8.214-8.214C16.427 3.685 12.742 0 8.213 0Zm0 15.058a6.82 6.82 0 0 1-4.79-1.965v-1.115c0-.326.145-.535.313-.778.174-.25.37-.533.37-.933 0-.653-.589-.72-.905-.755-.227-.025-.44-.05-.564-.172-.092-.093-.185-.261-.284-.44-.195-.355-.46-.824-.963-1.112.222-3.576 3.193-6.42 6.823-6.42.188 0 .373.014.557.03-.038.024-.084.04-.114.071a.343.343 0 0 0 .014.498c.123.109.147.164.152.164-.008.017-.071.124-.421.302-.578.293-1.246.893-1.345 1.517a.834.834 0 0 0 .23.74c.065.065.152.101.243.101.475 0 .842-.176 1.198-.345.364-.175.709-.34 1.197-.34 1.343 0 2.396.301 2.396.685 0 .14-.044.184-.06.2-.169.165-.741.155-1.244.147-.134-.002-.27-.005-.407-.005-.465 0-.609-.068-.776-.146-.194-.092-.414-.196-.935-.196-.564 0-1.613.102-2.296.785-.558.558-.499 1.226-.46 1.667.009.102.018.198.018.286 0 .674.689 1.026 1.369 1.026 1.046 0 1.95.196 2.053.343 0 .383.114.644.206.854.076.176.136.314.136.515 0 .155-.025.188-.094.276-.13.17-.248.354-.248.75 0 .72.694 1.51.772 1.598a.343.343 0 0 0 .34.103c.201-.052 1.968-.538 1.968-1.7 0-.365.113-.463.285-.612.169-.147.4-.347.4-.758 0-.274.486-.982.938-1.481a.343.343 0 0 0-.044-.5c-.266-.206-1-.878-1.247-1.53.14.074.314.192.453.331a.57.57 0 0 0 .44.163c.277-.016.607-.235.919-.508.16.579.252 1.185.252 1.814a6.852 6.852 0 0 1-6.845 6.845Z" fill="#f2d16a" fill-rule="evenodd" data-name="Path 602"/></svg>